<mxfile host="app.diagrams.net" modified="2022-09-16T02:52:44.643Z" agent="5.0 (Windows NT 10.0; Win64; x64) AppleWebKit/537.36 (KHTML, like Gecko) Chrome/105.0.0.0 Safari/537.36" etag="Likj-Lop-dJLXGXJzkSJ" version="20.3.1" type="github">
  <diagram name="Page-1" id="b520641d-4fe3-3701-9064-5fc419738815">
    <mxGraphModel dx="1550" dy="955" grid="1" gridSize="10" guides="1" tooltips="1" connect="1" arrows="1" fold="1" page="1" pageScale="1" pageWidth="1654" pageHeight="1169" background="none" math="0" shadow="1">
      <root>
        <mxCell id="0" />
        <mxCell id="1" parent="0" />
        <mxCell id="GAWejYHowwfh6FQVTsCk-2" value="D1" style="html=1;dashed=0;whitespace=wrap;shape=mxgraph.dfd.dataStoreID;align=left;spacingLeft=3;points=[[0,0],[0.5,0],[1,0],[0,0.5],[1,0.5],[0,1],[0.5,1],[1,1]];" parent="1" vertex="1">
          <mxGeometry x="492.5" y="330" width="160" height="30" as="geometry" />
        </mxCell>
        <mxCell id="GAWejYHowwfh6FQVTsCk-23" style="edgeStyle=orthogonalEdgeStyle;rounded=0;orthogonalLoop=1;jettySize=auto;html=1;entryX=0.5;entryY=1;entryDx=0;entryDy=0;startArrow=classic;startFill=1;" parent="1" source="GAWejYHowwfh6FQVTsCk-4" target="GAWejYHowwfh6FQVTsCk-16" edge="1">
          <mxGeometry relative="1" as="geometry" />
        </mxCell>
        <mxCell id="GAWejYHowwfh6FQVTsCk-4" value="1" style="swimlane;fontStyle=0;childLayout=stackLayout;horizontal=1;startSize=20;fillColor=#ffffff;horizontalStack=0;resizeParent=1;resizeParentMax=0;resizeLast=0;collapsible=0;marginBottom=0;swimlaneFillColor=#ffffff;rounded=1;" parent="1" vertex="1">
          <mxGeometry x="512.5" y="420" width="100" height="100" as="geometry" />
        </mxCell>
        <mxCell id="GAWejYHowwfh6FQVTsCk-15" value="处理" style="text;html=1;strokeColor=none;fillColor=none;align=center;verticalAlign=middle;whiteSpace=wrap;rounded=0;" parent="GAWejYHowwfh6FQVTsCk-4" vertex="1">
          <mxGeometry y="20" width="100" height="80" as="geometry" />
        </mxCell>
        <mxCell id="GAWejYHowwfh6FQVTsCk-10" value="" style="edgeStyle=orthogonalEdgeStyle;rounded=0;orthogonalLoop=1;jettySize=auto;html=1;entryX=0;entryY=0.5;entryDx=0;entryDy=0;" parent="1" source="GAWejYHowwfh6FQVTsCk-6" target="GAWejYHowwfh6FQVTsCk-11" edge="1">
          <mxGeometry relative="1" as="geometry">
            <mxPoint x="737.5" y="70" as="targetPoint" />
          </mxGeometry>
        </mxCell>
        <mxCell id="GAWejYHowwfh6FQVTsCk-6" value="GPS监控系统" style="rounded=1;whiteSpace=wrap;html=1;" parent="1" vertex="1">
          <mxGeometry x="567.5" y="40" width="122.5" height="70" as="geometry" />
        </mxCell>
        <mxCell id="GAWejYHowwfh6FQVTsCk-84" style="edgeStyle=orthogonalEdgeStyle;rounded=0;orthogonalLoop=1;jettySize=auto;html=1;exitX=1;exitY=0.5;exitDx=0;exitDy=0;entryX=0;entryY=0.25;entryDx=0;entryDy=0;startArrow=none;startFill=0;" parent="1" source="GAWejYHowwfh6FQVTsCk-7" target="GAWejYHowwfh6FQVTsCk-6" edge="1">
          <mxGeometry relative="1" as="geometry" />
        </mxCell>
        <mxCell id="GAWejYHowwfh6FQVTsCk-7" value="GPS厂商数据" style="rounded=0;whiteSpace=wrap;html=1;" parent="1" vertex="1">
          <mxGeometry x="327.5" y="42" width="122.5" height="30" as="geometry" />
        </mxCell>
        <mxCell id="GAWejYHowwfh6FQVTsCk-11" value="监控人员" style="rounded=0;whiteSpace=wrap;html=1;" parent="1" vertex="1">
          <mxGeometry x="807.5" y="45" width="120" height="60" as="geometry" />
        </mxCell>
        <mxCell id="GAWejYHowwfh6FQVTsCk-12" value="数据推送" style="text;html=1;strokeColor=none;fillColor=none;align=center;verticalAlign=middle;whiteSpace=wrap;rounded=0;" parent="1" vertex="1">
          <mxGeometry x="477.5" y="55" width="60" height="30" as="geometry" />
        </mxCell>
        <mxCell id="GAWejYHowwfh6FQVTsCk-13" value="告警推送" style="text;html=1;strokeColor=none;fillColor=none;align=center;verticalAlign=middle;whiteSpace=wrap;rounded=0;" parent="1" vertex="1">
          <mxGeometry x="717.5" y="40" width="60" height="30" as="geometry" />
        </mxCell>
        <mxCell id="GAWejYHowwfh6FQVTsCk-16" value="定位数据" style="text;html=1;strokeColor=none;fillColor=none;align=center;verticalAlign=middle;whiteSpace=wrap;rounded=0;" parent="1" vertex="1">
          <mxGeometry x="522.5" y="330" width="100" height="30" as="geometry" />
        </mxCell>
        <mxCell id="GAWejYHowwfh6FQVTsCk-24" value="D3" style="html=1;dashed=0;whitespace=wrap;shape=mxgraph.dfd.dataStoreID;align=left;spacingLeft=3;points=[[0,0],[0.5,0],[1,0],[0,0.5],[1,0.5],[0,1],[0.5,1],[1,1]];" parent="1" vertex="1">
          <mxGeometry x="740" y="600" width="200" height="30" as="geometry" />
        </mxCell>
        <mxCell id="GAWejYHowwfh6FQVTsCk-35" style="edgeStyle=orthogonalEdgeStyle;rounded=0;orthogonalLoop=1;jettySize=auto;html=1;exitX=0.75;exitY=0;exitDx=0;exitDy=0;entryX=0.5;entryY=1;entryDx=0;entryDy=0;startArrow=none;startFill=0;" parent="1" target="GAWejYHowwfh6FQVTsCk-28" edge="1">
          <mxGeometry relative="1" as="geometry">
            <mxPoint x="872.5" y="599.9999999999998" as="sourcePoint" />
          </mxGeometry>
        </mxCell>
        <mxCell id="GAWejYHowwfh6FQVTsCk-25" value="衍生变量" style="text;html=1;strokeColor=none;fillColor=none;align=center;verticalAlign=middle;whiteSpace=wrap;rounded=0;" parent="1" vertex="1">
          <mxGeometry x="761" y="600" width="190" height="30" as="geometry" />
        </mxCell>
        <mxCell id="GAWejYHowwfh6FQVTsCk-26" style="edgeStyle=orthogonalEdgeStyle;rounded=0;orthogonalLoop=1;jettySize=auto;html=1;exitX=0.5;exitY=1;exitDx=0;exitDy=0;startArrow=none;startFill=0;entryX=0.25;entryY=0;entryDx=0;entryDy=0;" parent="1" source="GAWejYHowwfh6FQVTsCk-98" target="GAWejYHowwfh6FQVTsCk-25" edge="1">
          <mxGeometry relative="1" as="geometry">
            <mxPoint x="612.5" y="580" as="targetPoint" />
          </mxGeometry>
        </mxCell>
        <mxCell id="GAWejYHowwfh6FQVTsCk-27" value="4" style="swimlane;fontStyle=0;childLayout=stackLayout;horizontal=1;startSize=20;fillColor=#ffffff;horizontalStack=0;resizeParent=1;resizeParentMax=0;resizeLast=0;collapsible=0;marginBottom=0;swimlaneFillColor=#ffffff;rounded=1;" parent="1" vertex="1">
          <mxGeometry x="850" y="420" width="100" height="100" as="geometry" />
        </mxCell>
        <mxCell id="GAWejYHowwfh6FQVTsCk-28" value="告警" style="text;html=1;strokeColor=none;fillColor=none;align=center;verticalAlign=middle;whiteSpace=wrap;rounded=0;" parent="GAWejYHowwfh6FQVTsCk-27" vertex="1">
          <mxGeometry y="20" width="100" height="80" as="geometry" />
        </mxCell>
        <mxCell id="GAWejYHowwfh6FQVTsCk-32" value="监控人员" style="rounded=0;whiteSpace=wrap;html=1;" parent="1" vertex="1">
          <mxGeometry x="1080" y="455" width="110" height="50" as="geometry" />
        </mxCell>
        <mxCell id="GAWejYHowwfh6FQVTsCk-34" style="edgeStyle=orthogonalEdgeStyle;rounded=0;orthogonalLoop=1;jettySize=auto;html=1;exitX=1;exitY=0.5;exitDx=0;exitDy=0;entryX=0;entryY=0.5;entryDx=0;entryDy=0;startArrow=none;startFill=0;" parent="1" source="GAWejYHowwfh6FQVTsCk-28" target="GAWejYHowwfh6FQVTsCk-32" edge="1">
          <mxGeometry relative="1" as="geometry" />
        </mxCell>
        <mxCell id="GAWejYHowwfh6FQVTsCk-36" value="告警推送" style="text;html=1;strokeColor=none;fillColor=none;align=center;verticalAlign=middle;whiteSpace=wrap;rounded=0;" parent="1" vertex="1">
          <mxGeometry x="990" y="450" width="60" height="30" as="geometry" />
        </mxCell>
        <mxCell id="GAWejYHowwfh6FQVTsCk-39" value="D1" style="html=1;dashed=0;whitespace=wrap;shape=mxgraph.dfd.dataStoreID;align=left;spacingLeft=3;points=[[0,0],[0.5,0],[1,0],[0,0.5],[1,0.5],[0,1],[0.5,1],[1,1]];" parent="1" vertex="1">
          <mxGeometry x="517.5" y="769" width="160" height="30" as="geometry" />
        </mxCell>
        <mxCell id="GAWejYHowwfh6FQVTsCk-42" style="edgeStyle=orthogonalEdgeStyle;rounded=0;orthogonalLoop=1;jettySize=auto;html=1;entryX=0.5;entryY=1;entryDx=0;entryDy=0;startArrow=classic;startFill=1;" parent="1" source="GAWejYHowwfh6FQVTsCk-43" target="GAWejYHowwfh6FQVTsCk-45" edge="1">
          <mxGeometry relative="1" as="geometry" />
        </mxCell>
        <mxCell id="GAWejYHowwfh6FQVTsCk-43" value="1.2" style="swimlane;fontStyle=0;childLayout=stackLayout;horizontal=1;startSize=20;fillColor=#ffffff;horizontalStack=0;resizeParent=1;resizeParentMax=0;resizeLast=0;collapsible=0;marginBottom=0;swimlaneFillColor=#ffffff;rounded=1;" parent="1" vertex="1">
          <mxGeometry x="507.5" y="859" width="100" height="100" as="geometry" />
        </mxCell>
        <mxCell id="GAWejYHowwfh6FQVTsCk-44" value="存储处理" style="text;html=1;strokeColor=none;fillColor=none;align=center;verticalAlign=middle;whiteSpace=wrap;rounded=0;" parent="GAWejYHowwfh6FQVTsCk-43" vertex="1">
          <mxGeometry y="20" width="100" height="80" as="geometry" />
        </mxCell>
        <mxCell id="GAWejYHowwfh6FQVTsCk-45" value="定位数据" style="text;html=1;strokeColor=none;fillColor=none;align=center;verticalAlign=middle;whiteSpace=wrap;rounded=0;" parent="1" vertex="1">
          <mxGeometry x="547.5" y="769" width="100" height="30" as="geometry" />
        </mxCell>
        <mxCell id="GAWejYHowwfh6FQVTsCk-47" value="D3" style="html=1;dashed=0;whitespace=wrap;shape=mxgraph.dfd.dataStoreID;align=left;spacingLeft=3;points=[[0,0],[0.5,0],[1,0],[0,0.5],[1,0.5],[0,1],[0.5,1],[1,1]];" parent="1" vertex="1">
          <mxGeometry x="677.5" y="1039" width="200" height="30" as="geometry" />
        </mxCell>
        <mxCell id="GAWejYHowwfh6FQVTsCk-48" style="edgeStyle=orthogonalEdgeStyle;rounded=0;orthogonalLoop=1;jettySize=auto;html=1;exitX=0.611;exitY=-0.06;exitDx=0;exitDy=0;entryX=0.5;entryY=1;entryDx=0;entryDy=0;startArrow=none;startFill=0;exitPerimeter=0;" parent="1" source="GAWejYHowwfh6FQVTsCk-49" target="GAWejYHowwfh6FQVTsCk-52" edge="1">
          <mxGeometry relative="1" as="geometry">
            <mxPoint x="840" y="1039" as="sourcePoint" />
          </mxGeometry>
        </mxCell>
        <mxCell id="GAWejYHowwfh6FQVTsCk-49" value="衍生变量" style="text;html=1;strokeColor=none;fillColor=none;align=center;verticalAlign=middle;whiteSpace=wrap;rounded=0;" parent="1" vertex="1">
          <mxGeometry x="700" y="1039" width="190" height="30" as="geometry" />
        </mxCell>
        <mxCell id="GAWejYHowwfh6FQVTsCk-50" style="edgeStyle=orthogonalEdgeStyle;rounded=0;orthogonalLoop=1;jettySize=auto;html=1;exitX=0.5;exitY=1;exitDx=0;exitDy=0;startArrow=classic;startFill=1;entryX=0.25;entryY=0;entryDx=0;entryDy=0;" parent="1" source="GAWejYHowwfh6FQVTsCk-68" target="GAWejYHowwfh6FQVTsCk-49" edge="1">
          <mxGeometry relative="1" as="geometry">
            <mxPoint x="637.5" y="1019" as="targetPoint" />
          </mxGeometry>
        </mxCell>
        <mxCell id="GAWejYHowwfh6FQVTsCk-51" value="4" style="swimlane;fontStyle=0;childLayout=stackLayout;horizontal=1;startSize=20;fillColor=#ffffff;horizontalStack=0;resizeParent=1;resizeParentMax=0;resizeLast=0;collapsible=0;marginBottom=0;swimlaneFillColor=#ffffff;rounded=1;" parent="1" vertex="1">
          <mxGeometry x="817.5" y="859" width="100" height="110" as="geometry" />
        </mxCell>
        <mxCell id="GAWejYHowwfh6FQVTsCk-52" value="设置告警" style="text;html=1;strokeColor=none;fillColor=none;align=center;verticalAlign=middle;whiteSpace=wrap;rounded=0;" parent="GAWejYHowwfh6FQVTsCk-51" vertex="1">
          <mxGeometry y="20" width="100" height="90" as="geometry" />
        </mxCell>
        <mxCell id="GAWejYHowwfh6FQVTsCk-54" style="edgeStyle=orthogonalEdgeStyle;rounded=0;orthogonalLoop=1;jettySize=auto;html=1;exitX=1;exitY=0.5;exitDx=0;exitDy=0;startArrow=none;startFill=0;" parent="1" source="GAWejYHowwfh6FQVTsCk-52" edge="1">
          <mxGeometry relative="1" as="geometry">
            <mxPoint x="1017.5" y="924" as="targetPoint" />
          </mxGeometry>
        </mxCell>
        <mxCell id="GAWejYHowwfh6FQVTsCk-55" value="告警触发" style="text;html=1;strokeColor=none;fillColor=none;align=center;verticalAlign=middle;whiteSpace=wrap;rounded=0;" parent="1" vertex="1">
          <mxGeometry x="947.5" y="889" width="60" height="30" as="geometry" />
        </mxCell>
        <mxCell id="GAWejYHowwfh6FQVTsCk-60" value="1.1" style="swimlane;fontStyle=0;childLayout=stackLayout;horizontal=1;startSize=20;fillColor=#ffffff;horizontalStack=0;resizeParent=1;resizeParentMax=0;resizeLast=0;collapsible=0;marginBottom=0;swimlaneFillColor=#ffffff;rounded=1;" parent="1" vertex="1">
          <mxGeometry x="317.5" y="859" width="90" height="100" as="geometry" />
        </mxCell>
        <mxCell id="GAWejYHowwfh6FQVTsCk-61" value="接收厂商数据" style="text;html=1;strokeColor=none;fillColor=none;align=center;verticalAlign=middle;whiteSpace=wrap;rounded=0;" parent="GAWejYHowwfh6FQVTsCk-60" vertex="1">
          <mxGeometry y="20" width="90" height="80" as="geometry" />
        </mxCell>
        <mxCell id="GAWejYHowwfh6FQVTsCk-63" style="edgeStyle=orthogonalEdgeStyle;rounded=0;orthogonalLoop=1;jettySize=auto;html=1;exitX=1;exitY=0.5;exitDx=0;exitDy=0;startArrow=none;startFill=0;" parent="1" source="GAWejYHowwfh6FQVTsCk-61" target="GAWejYHowwfh6FQVTsCk-44" edge="1">
          <mxGeometry relative="1" as="geometry" />
        </mxCell>
        <mxCell id="GAWejYHowwfh6FQVTsCk-65" value="存储" style="text;html=1;strokeColor=none;fillColor=none;align=center;verticalAlign=middle;whiteSpace=wrap;rounded=0;" parent="1" vertex="1">
          <mxGeometry x="407.5" y="889" width="100" height="30" as="geometry" />
        </mxCell>
        <mxCell id="GAWejYHowwfh6FQVTsCk-67" value="3" style="swimlane;fontStyle=0;childLayout=stackLayout;horizontal=1;startSize=20;fillColor=#ffffff;horizontalStack=0;resizeParent=1;resizeParentMax=0;resizeLast=0;collapsible=0;marginBottom=0;swimlaneFillColor=#ffffff;rounded=1;" parent="1" vertex="1">
          <mxGeometry x="657.5" y="859" width="100" height="100" as="geometry" />
        </mxCell>
        <mxCell id="GAWejYHowwfh6FQVTsCk-68" value="加工数据" style="text;html=1;strokeColor=none;fillColor=none;align=center;verticalAlign=middle;whiteSpace=wrap;rounded=0;" parent="GAWejYHowwfh6FQVTsCk-67" vertex="1">
          <mxGeometry y="20" width="100" height="80" as="geometry" />
        </mxCell>
        <mxCell id="GAWejYHowwfh6FQVTsCk-69" style="edgeStyle=orthogonalEdgeStyle;rounded=0;orthogonalLoop=1;jettySize=auto;html=1;exitX=1;exitY=0.5;exitDx=0;exitDy=0;startArrow=none;startFill=0;" parent="1" source="GAWejYHowwfh6FQVTsCk-44" target="GAWejYHowwfh6FQVTsCk-68" edge="1">
          <mxGeometry relative="1" as="geometry" />
        </mxCell>
        <mxCell id="GAWejYHowwfh6FQVTsCk-71" value="4.1" style="swimlane;fontStyle=0;childLayout=stackLayout;horizontal=1;startSize=20;fillColor=#ffffff;horizontalStack=0;resizeParent=1;resizeParentMax=0;resizeLast=0;collapsible=0;marginBottom=0;swimlaneFillColor=#ffffff;rounded=1;" parent="1" vertex="1">
          <mxGeometry x="1017.5" y="859" width="100" height="110" as="geometry" />
        </mxCell>
        <mxCell id="GAWejYHowwfh6FQVTsCk-72" value="告警列表" style="text;html=1;strokeColor=none;fillColor=none;align=center;verticalAlign=middle;whiteSpace=wrap;rounded=0;" parent="GAWejYHowwfh6FQVTsCk-71" vertex="1">
          <mxGeometry y="20" width="100" height="90" as="geometry" />
        </mxCell>
        <mxCell id="GAWejYHowwfh6FQVTsCk-74" value="监控人员" style="rounded=0;whiteSpace=wrap;html=1;" parent="1" vertex="1">
          <mxGeometry x="1200" y="899" width="110" height="50" as="geometry" />
        </mxCell>
        <mxCell id="GAWejYHowwfh6FQVTsCk-76" value="告警推送" style="text;html=1;strokeColor=none;fillColor=none;align=center;verticalAlign=middle;whiteSpace=wrap;rounded=0;" parent="1" vertex="1">
          <mxGeometry x="1130" y="889" width="60" height="30" as="geometry" />
        </mxCell>
        <mxCell id="GAWejYHowwfh6FQVTsCk-78" value="" style="endArrow=none;dashed=1;html=1;dashPattern=1 3;strokeWidth=2;rounded=0;" parent="1" edge="1">
          <mxGeometry width="50" height="50" relative="1" as="geometry">
            <mxPoint x="120" y="300" as="sourcePoint" />
            <mxPoint x="1160" y="300" as="targetPoint" />
          </mxGeometry>
        </mxCell>
        <mxCell id="GAWejYHowwfh6FQVTsCk-79" value="" style="endArrow=none;dashed=1;html=1;dashPattern=1 3;strokeWidth=2;rounded=0;" parent="1" edge="1">
          <mxGeometry width="50" height="50" relative="1" as="geometry">
            <mxPoint x="130" y="739" as="sourcePoint" />
            <mxPoint x="1170" y="739" as="targetPoint" />
          </mxGeometry>
        </mxCell>
        <mxCell id="GAWejYHowwfh6FQVTsCk-80" value="&lt;h3 style=&quot;box-sizing: border-box; outline: 0px; margin: 8px 0px 16px; padding: 0px; font-family: &amp;quot;PingFang SC&amp;quot;, &amp;quot;Microsoft YaHei&amp;quot;, SimHei, Arial, SimSun; font-size: 20px; color: rgb(79, 79, 79); line-height: 28px; overflow-wrap: break-word; font-variant-ligatures: no-common-ligatures; text-align: start; background-color: rgb(255, 255, 255);&quot;&gt;顶层数据流图&lt;/h3&gt;" style="text;html=1;strokeColor=none;fillColor=none;align=center;verticalAlign=middle;whiteSpace=wrap;rounded=0;" parent="1" vertex="1">
          <mxGeometry x="90" y="55" width="180" height="30" as="geometry" />
        </mxCell>
        <mxCell id="GAWejYHowwfh6FQVTsCk-81" value="&lt;h3 style=&quot;box-sizing: border-box; outline: 0px; margin: 8px 0px 16px; padding: 0px; font-family: &amp;quot;PingFang SC&amp;quot;, &amp;quot;Microsoft YaHei&amp;quot;, SimHei, Arial, SimSun; font-size: 20px; color: rgb(79, 79, 79); line-height: 28px; overflow-wrap: break-word; font-variant-ligatures: no-common-ligatures; text-align: start; background-color: rgb(255, 255, 255);&quot;&gt;第0层数据流图&lt;/h3&gt;" style="text;html=1;strokeColor=none;fillColor=none;align=center;verticalAlign=middle;whiteSpace=wrap;rounded=0;" parent="1" vertex="1">
          <mxGeometry x="110" y="340" width="180" height="30" as="geometry" />
        </mxCell>
        <mxCell id="GAWejYHowwfh6FQVTsCk-82" value="&lt;h3 style=&quot;box-sizing: border-box; outline: 0px; margin: 8px 0px 16px; padding: 0px; font-family: &amp;quot;PingFang SC&amp;quot;, &amp;quot;Microsoft YaHei&amp;quot;, SimHei, Arial, SimSun; font-size: 20px; color: rgb(79, 79, 79); line-height: 28px; overflow-wrap: break-word; font-variant-ligatures: no-common-ligatures; text-align: start; background-color: rgb(255, 255, 255);&quot;&gt;第1层数据流图&lt;/h3&gt;" style="text;html=1;strokeColor=none;fillColor=none;align=center;verticalAlign=middle;whiteSpace=wrap;rounded=0;" parent="1" vertex="1">
          <mxGeometry x="110" y="789" width="180" height="30" as="geometry" />
        </mxCell>
        <mxCell id="GAWejYHowwfh6FQVTsCk-83" style="edgeStyle=orthogonalEdgeStyle;rounded=0;orthogonalLoop=1;jettySize=auto;html=1;exitX=1;exitY=0.5;exitDx=0;exitDy=0;entryX=0;entryY=0.5;entryDx=0;entryDy=0;startArrow=none;startFill=0;" parent="1" source="GAWejYHowwfh6FQVTsCk-72" target="GAWejYHowwfh6FQVTsCk-74" edge="1">
          <mxGeometry relative="1" as="geometry" />
        </mxCell>
        <mxCell id="GAWejYHowwfh6FQVTsCk-86" style="edgeStyle=orthogonalEdgeStyle;rounded=0;orthogonalLoop=1;jettySize=auto;html=1;exitX=1;exitY=0.5;exitDx=0;exitDy=0;entryX=0;entryY=0.75;entryDx=0;entryDy=0;startArrow=none;startFill=0;" parent="1" source="GAWejYHowwfh6FQVTsCk-85" target="GAWejYHowwfh6FQVTsCk-6" edge="1">
          <mxGeometry relative="1" as="geometry" />
        </mxCell>
        <mxCell id="GAWejYHowwfh6FQVTsCk-85" value="业务数据" style="rounded=0;whiteSpace=wrap;html=1;" parent="1" vertex="1">
          <mxGeometry x="327.5" y="77" width="122.5" height="30" as="geometry" />
        </mxCell>
        <mxCell id="GAWejYHowwfh6FQVTsCk-87" style="edgeStyle=orthogonalEdgeStyle;rounded=0;orthogonalLoop=1;jettySize=auto;html=1;exitX=1;exitY=0.5;exitDx=0;exitDy=0;entryX=0;entryY=0.25;entryDx=0;entryDy=0;startArrow=none;startFill=0;" parent="1" source="GAWejYHowwfh6FQVTsCk-88" edge="1">
          <mxGeometry relative="1" as="geometry">
            <mxPoint x="512.5" y="455.5" as="targetPoint" />
          </mxGeometry>
        </mxCell>
        <mxCell id="GAWejYHowwfh6FQVTsCk-88" value="GPS厂商数据" style="rounded=0;whiteSpace=wrap;html=1;" parent="1" vertex="1">
          <mxGeometry x="272.5" y="440" width="122.5" height="30" as="geometry" />
        </mxCell>
        <mxCell id="GAWejYHowwfh6FQVTsCk-89" value="数据推送" style="text;html=1;strokeColor=none;fillColor=none;align=center;verticalAlign=middle;whiteSpace=wrap;rounded=0;" parent="1" vertex="1">
          <mxGeometry x="417.5" y="555" width="60" height="30" as="geometry" />
        </mxCell>
        <mxCell id="GAWejYHowwfh6FQVTsCk-90" style="edgeStyle=orthogonalEdgeStyle;rounded=0;orthogonalLoop=1;jettySize=auto;html=1;exitX=1;exitY=0.5;exitDx=0;exitDy=0;startArrow=none;startFill=0;" parent="1" source="GAWejYHowwfh6FQVTsCk-91" edge="1" target="6WVc5P05MNi-9Q3ZvMdZ-11">
          <mxGeometry relative="1" as="geometry">
            <mxPoint x="507.5" y="585.5" as="targetPoint" />
          </mxGeometry>
        </mxCell>
        <mxCell id="GAWejYHowwfh6FQVTsCk-91" value="业务数据" style="rounded=0;whiteSpace=wrap;html=1;" parent="1" vertex="1">
          <mxGeometry x="267.5" y="580" width="122.5" height="30" as="geometry" />
        </mxCell>
        <mxCell id="GAWejYHowwfh6FQVTsCk-92" style="edgeStyle=orthogonalEdgeStyle;rounded=0;orthogonalLoop=1;jettySize=auto;html=1;entryX=0;entryY=0.25;entryDx=0;entryDy=0;startArrow=none;startFill=0;" parent="1" source="GAWejYHowwfh6FQVTsCk-93" edge="1">
          <mxGeometry relative="1" as="geometry">
            <mxPoint x="320" y="897" as="targetPoint" />
            <mxPoint x="202.5" y="896.5" as="sourcePoint" />
          </mxGeometry>
        </mxCell>
        <mxCell id="GAWejYHowwfh6FQVTsCk-93" value="GPS厂商数据" style="rounded=0;whiteSpace=wrap;html=1;" parent="1" vertex="1">
          <mxGeometry x="90" y="882" width="122.5" height="30" as="geometry" />
        </mxCell>
        <mxCell id="GAWejYHowwfh6FQVTsCk-94" value="数据推送" style="text;html=1;strokeColor=none;fillColor=none;align=center;verticalAlign=middle;whiteSpace=wrap;rounded=0;" parent="1" vertex="1">
          <mxGeometry x="230" y="869" width="60" height="30" as="geometry" />
        </mxCell>
        <mxCell id="GAWejYHowwfh6FQVTsCk-95" style="edgeStyle=orthogonalEdgeStyle;rounded=0;orthogonalLoop=1;jettySize=auto;html=1;exitX=1;exitY=0.5;exitDx=0;exitDy=0;entryX=0.02;entryY=0.368;entryDx=0;entryDy=0;startArrow=none;startFill=0;entryPerimeter=0;" parent="1" source="GAWejYHowwfh6FQVTsCk-96" target="GAWejYHowwfh6FQVTsCk-102" edge="1">
          <mxGeometry relative="1" as="geometry">
            <mxPoint x="330" y="1074.5" as="targetPoint" />
          </mxGeometry>
        </mxCell>
        <mxCell id="GAWejYHowwfh6FQVTsCk-96" value="业务数据" style="rounded=0;whiteSpace=wrap;html=1;" parent="1" vertex="1">
          <mxGeometry x="90" y="1039" width="122.5" height="30" as="geometry" />
        </mxCell>
        <mxCell id="GAWejYHowwfh6FQVTsCk-97" value="3" style="swimlane;fontStyle=0;childLayout=stackLayout;horizontal=1;startSize=20;fillColor=#ffffff;horizontalStack=0;resizeParent=1;resizeParentMax=0;resizeLast=0;collapsible=0;marginBottom=0;swimlaneFillColor=#ffffff;rounded=1;" parent="1" vertex="1">
          <mxGeometry x="690" y="420" width="100" height="100" as="geometry" />
        </mxCell>
        <mxCell id="GAWejYHowwfh6FQVTsCk-98" value="加工" style="text;html=1;strokeColor=none;fillColor=none;align=center;verticalAlign=middle;whiteSpace=wrap;rounded=0;" parent="GAWejYHowwfh6FQVTsCk-97" vertex="1">
          <mxGeometry y="20" width="100" height="80" as="geometry" />
        </mxCell>
        <mxCell id="GAWejYHowwfh6FQVTsCk-100" style="edgeStyle=orthogonalEdgeStyle;rounded=0;orthogonalLoop=1;jettySize=auto;html=1;exitX=1;exitY=0.5;exitDx=0;exitDy=0;entryX=0;entryY=0.5;entryDx=0;entryDy=0;startArrow=none;startFill=0;" parent="1" source="GAWejYHowwfh6FQVTsCk-15" target="GAWejYHowwfh6FQVTsCk-98" edge="1">
          <mxGeometry relative="1" as="geometry" />
        </mxCell>
        <mxCell id="GAWejYHowwfh6FQVTsCk-101" value="2.1" style="swimlane;fontStyle=0;childLayout=stackLayout;horizontal=1;startSize=20;fillColor=#ffffff;horizontalStack=0;resizeParent=1;resizeParentMax=0;resizeLast=0;collapsible=0;marginBottom=0;swimlaneFillColor=#ffffff;rounded=1;" parent="1" vertex="1">
          <mxGeometry x="317.5" y="1004" width="90" height="100" as="geometry" />
        </mxCell>
        <mxCell id="GAWejYHowwfh6FQVTsCk-102" value="接收业务数据" style="text;html=1;strokeColor=none;fillColor=none;align=center;verticalAlign=middle;whiteSpace=wrap;rounded=0;" parent="GAWejYHowwfh6FQVTsCk-101" vertex="1">
          <mxGeometry y="20" width="90" height="80" as="geometry" />
        </mxCell>
        <mxCell id="GAWejYHowwfh6FQVTsCk-104" style="edgeStyle=orthogonalEdgeStyle;rounded=0;orthogonalLoop=1;jettySize=auto;html=1;exitX=1;exitY=0.5;exitDx=0;exitDy=0;entryX=-0.023;entryY=0.385;entryDx=0;entryDy=0;startArrow=none;startFill=0;entryPerimeter=0;" parent="1" source="GAWejYHowwfh6FQVTsCk-102" target="6WVc5P05MNi-9Q3ZvMdZ-4" edge="1">
          <mxGeometry relative="1" as="geometry" />
        </mxCell>
        <mxCell id="GAWejYHowwfh6FQVTsCk-105" value="存储" style="text;html=1;strokeColor=none;fillColor=none;align=center;verticalAlign=middle;whiteSpace=wrap;rounded=0;" parent="1" vertex="1">
          <mxGeometry x="392.5" y="1009" width="100" height="30" as="geometry" />
        </mxCell>
        <mxCell id="6WVc5P05MNi-9Q3ZvMdZ-1" value="D2" style="html=1;dashed=0;whitespace=wrap;shape=mxgraph.dfd.dataStoreID;align=left;spacingLeft=3;points=[[0,0],[0.5,0],[1,0],[0,0.5],[1,0.5],[0,1],[0.5,1],[1,1]];" vertex="1" parent="1">
          <mxGeometry x="502.5" y="1139" width="160" height="30" as="geometry" />
        </mxCell>
        <mxCell id="6WVc5P05MNi-9Q3ZvMdZ-3" value="2.2" style="swimlane;fontStyle=0;childLayout=stackLayout;horizontal=1;startSize=20;fillColor=#ffffff;horizontalStack=0;resizeParent=1;resizeParentMax=0;resizeLast=0;collapsible=0;marginBottom=0;swimlaneFillColor=#ffffff;rounded=1;" vertex="1" parent="1">
          <mxGeometry x="497.5" y="984" width="100" height="100" as="geometry" />
        </mxCell>
        <mxCell id="6WVc5P05MNi-9Q3ZvMdZ-4" value="存储处理" style="text;html=1;strokeColor=none;fillColor=none;align=center;verticalAlign=middle;whiteSpace=wrap;rounded=0;" vertex="1" parent="6WVc5P05MNi-9Q3ZvMdZ-3">
          <mxGeometry y="20" width="100" height="80" as="geometry" />
        </mxCell>
        <mxCell id="6WVc5P05MNi-9Q3ZvMdZ-5" value="业务数据" style="text;html=1;strokeColor=none;fillColor=none;align=center;verticalAlign=middle;whiteSpace=wrap;rounded=0;" vertex="1" parent="1">
          <mxGeometry x="532.5" y="1139" width="100" height="30" as="geometry" />
        </mxCell>
        <mxCell id="6WVc5P05MNi-9Q3ZvMdZ-6" style="edgeStyle=orthogonalEdgeStyle;rounded=0;orthogonalLoop=1;jettySize=auto;html=1;exitX=1;exitY=0.5;exitDx=0;exitDy=0;startArrow=none;startFill=0;entryX=0;entryY=0.5;entryDx=0;entryDy=0;" edge="1" parent="1" source="6WVc5P05MNi-9Q3ZvMdZ-4" target="GAWejYHowwfh6FQVTsCk-68">
          <mxGeometry relative="1" as="geometry">
            <mxPoint x="647.5" y="1044" as="targetPoint" />
          </mxGeometry>
        </mxCell>
        <mxCell id="6WVc5P05MNi-9Q3ZvMdZ-7" style="edgeStyle=orthogonalEdgeStyle;rounded=0;orthogonalLoop=1;jettySize=auto;html=1;exitX=0.5;exitY=1;exitDx=0;exitDy=0;entryX=0.5;entryY=0;entryDx=0;entryDy=0;startArrow=classic;startFill=1;" edge="1" parent="1" source="6WVc5P05MNi-9Q3ZvMdZ-4" target="6WVc5P05MNi-9Q3ZvMdZ-5">
          <mxGeometry relative="1" as="geometry" />
        </mxCell>
        <mxCell id="6WVc5P05MNi-9Q3ZvMdZ-9" value="数据推送" style="text;html=1;strokeColor=none;fillColor=none;align=center;verticalAlign=middle;whiteSpace=wrap;rounded=0;" vertex="1" parent="1">
          <mxGeometry x="422.5" y="425" width="60" height="30" as="geometry" />
        </mxCell>
        <mxCell id="6WVc5P05MNi-9Q3ZvMdZ-10" value="2" style="swimlane;fontStyle=0;childLayout=stackLayout;horizontal=1;startSize=20;fillColor=#ffffff;horizontalStack=0;resizeParent=1;resizeParentMax=0;resizeLast=0;collapsible=0;marginBottom=0;swimlaneFillColor=#ffffff;rounded=1;" vertex="1" parent="1">
          <mxGeometry x="512.5" y="535" width="100" height="100" as="geometry" />
        </mxCell>
        <mxCell id="6WVc5P05MNi-9Q3ZvMdZ-11" value="处理" style="text;html=1;strokeColor=none;fillColor=none;align=center;verticalAlign=middle;whiteSpace=wrap;rounded=0;" vertex="1" parent="6WVc5P05MNi-9Q3ZvMdZ-10">
          <mxGeometry y="20" width="100" height="80" as="geometry" />
        </mxCell>
        <mxCell id="6WVc5P05MNi-9Q3ZvMdZ-13" style="edgeStyle=orthogonalEdgeStyle;rounded=0;orthogonalLoop=1;jettySize=auto;html=1;exitX=1;exitY=0.5;exitDx=0;exitDy=0;entryX=0;entryY=0.75;entryDx=0;entryDy=0;startArrow=classic;startFill=1;" edge="1" parent="1" source="6WVc5P05MNi-9Q3ZvMdZ-11" target="GAWejYHowwfh6FQVTsCk-98">
          <mxGeometry relative="1" as="geometry" />
        </mxCell>
        <mxCell id="6WVc5P05MNi-9Q3ZvMdZ-15" value="数据推送" style="text;html=1;strokeColor=none;fillColor=none;align=center;verticalAlign=middle;whiteSpace=wrap;rounded=0;" vertex="1" parent="1">
          <mxGeometry x="230" y="1030" width="60" height="30" as="geometry" />
        </mxCell>
      </root>
    </mxGraphModel>
  </diagram>
</mxfile>
